<svg xmlns="http://www.w3.org/2000/svg" width="115" height="115" viewBox="0 0 115 115">
  <g id="shoppy" transform="translate(-107 -299)">
    <g id="Ellipse_1" data-name="Ellipse 1" transform="translate(107 299)" fill="#fff" stroke="#ff3852" stroke-width="5">
      <circle cx="57.5" cy="57.5" r="57.5" stroke="none"/>
      <circle cx="57.5" cy="57.5" r="55" fill="none"/>
    </g>
    <path id="store" d="M61.191,12.045,54.6,1.523A3.251,3.251,0,0,0,51.847,0H10.816A3.251,3.251,0,0,0,8.064,1.523L1.472,12.045c-3.4,5.434-.386,12.99,5.972,13.853a10.555,10.555,0,0,0,1.391.091,10.029,10.029,0,0,0,7.5-3.362,10.037,10.037,0,0,0,14.991,0,10.037,10.037,0,0,0,14.991,0,10.062,10.062,0,0,0,7.5,3.362A10.441,10.441,0,0,0,55.2,25.9c6.378-.853,9.4-8.409,5.992-13.853Zm-7.363,17.2a12.886,12.886,0,0,1-3-.386V39h-39V28.864a13.455,13.455,0,0,1-3,.386,13.7,13.7,0,0,1-1.828-.122,12.772,12.772,0,0,1-1.666-.366V48.75A3.247,3.247,0,0,0,8.592,52h45.5a3.247,3.247,0,0,0,3.25-3.25V28.763a10.37,10.37,0,0,1-1.666.366,14.124,14.124,0,0,1-1.848.122Z" transform="translate(132.944 315)" fill="#ff3852"/>
    <text id="shoppy-2" data-name="shoppy" transform="translate(130 367)" fill="#ff3852" font-size="20" font-family="SegoeUI, Segoe UI"><tspan x="0" y="22">shoppy</tspan></text>
  </g>
</svg>
